<svg xmlns="http://www.w3.org/2000/svg" xmlns:xlink="http://www.w3.org/1999/xlink" width="500" zoomAndPan="magnify" viewBox="0 0 375 374.999991" height="500" preserveAspectRatio="xMidYMid meet" version="1.0"><defs><clipPath id="797f0946ba"><path d="M 82 116 L 374 116 L 374 300 L 82 300 Z M 82 116 " clip-rule="nonzero"/></clipPath><clipPath id="c8e3f45bb8"><path d="M 0 75 L 295 75 L 295 255 L 0 255 Z M 0 75 " clip-rule="nonzero"/></clipPath></defs><g clip-path="url(#797f0946ba)"><path fill="#047c64" d="M 373.707031 116.378906 C 373.023438 133.925781 370.828125 151.253906 368.589844 168.660156 C 367.964844 173.554688 367.355469 178.453125 366.742188 183.351562 C 366.347656 186.476562 365.949219 189.601562 365.546875 192.726562 L 365 197.144531 L 364.464844 201.257812 L 364.007812 204.851562 C 363.324219 208.390625 362.300781 211.390625 360.777344 214.65625 C 358.5 216.683594 358.5 216.683594 355.730469 218.417969 L 352.601562 220.410156 L 349.21875 222.496094 L 345.703125 224.714844 C 343.289062 226.234375 340.871094 227.75 338.449219 229.257812 C 335.199219 231.292969 331.960938 233.34375 328.738281 235.421875 C 294.96875 257.078125 260.5 277.875 222.414062 290.949219 L 217.859375 292.585938 C 196.792969 299.695312 174.351562 302.191406 152.5 297.945312 C 135.777344 294.351562 121.410156 286.242188 108.460938 275.1875 C 98.019531 265.445312 89.230469 253.253906 82.757812 240.515625 L 82.757812 237.929688 C 85.386719 236.113281 88.015625 234.46875 90.761719 232.839844 C 98.28125 228.273438 105.707031 223.550781 113.035156 218.679688 L 115.574219 217 C 118.988281 214.738281 122.402344 212.476562 125.804688 210.195312 C 128.230469 208.574219 130.660156 206.960938 133.09375 205.351562 L 137.394531 202.480469 C 140.949219 200.429688 140.949219 200.429688 144.828125 200.429688 C 146.867188 202.464844 146.867188 202.464844 149.03125 205.199219 C 154.015625 211.089844 158.679688 215.375 165.785156 218.492188 C 176.296875 222.160156 186.570312 222.082031 197.480469 220.363281 C 230.855469 213.089844 259.910156 191.738281 287.070312 171.984375 C 307.058594 157.472656 327.132812 143.183594 348.007812 129.957031 L 350.972656 128.074219 C 369.617188 116.378906 369.617188 116.378906 373.707031 116.378906 " fill-opacity="1" fill-rule="nonzero"/></g><g clip-path="url(#c8e3f45bb8)"><path fill="#047c64" d="M 200.980469 74.792969 C 217.339844 74.234375 233.734375 77.871094 248.277344 85.34375 C 266.09375 95.273438 278.714844 108.660156 289.699219 125.613281 C 293.773438 132.550781 293.773438 132.550781 294.828125 135.777344 C 293.910156 138.339844 293.910156 138.339844 292.242188 140.949219 C 289.964844 142.714844 289.964844 142.714844 287.195312 144.300781 L 284.0625 146.132812 L 280.683594 148.058594 L 270.007812 154.308594 C 263.210938 158.351562 256.566406 162.632812 249.917969 166.910156 C 244.75 170.214844 239.613281 173.242188 234.050781 175.863281 L 232.242188 173.589844 C 224.828125 164.707031 217.207031 159.1875 206.574219 154.6875 C 190.445312 152 175.304688 154.476562 160.140625 160.082031 C 130.730469 171.664062 104.914062 190.164062 78.875 207.742188 C 16.859375 249.589844 16.859375 249.589844 2.585938 254.742188 L 0 253.449219 C 1.769531 241.585938 3.558594 229.726562 5.363281 217.871094 C 6.203125 212.367188 7.03125 206.859375 7.855469 201.351562 C 8.648438 196.035156 9.453125 190.71875 10.269531 185.402344 C 10.578125 183.378906 10.882812 181.351562 11.179688 179.324219 C 11.597656 176.480469 12.035156 173.640625 12.476562 170.800781 L 13.21875 165.902344 C 14.234375 161.59375 15.542969 158.753906 18.101562 155.171875 C 20.640625 153.203125 20.640625 153.203125 23.570312 151.546875 L 26.914062 149.613281 L 30.550781 147.574219 C 33.144531 146.085938 35.738281 144.59375 38.328125 143.101562 C 39.679688 142.324219 41.035156 141.550781 42.429688 140.753906 C 47.84375 137.613281 53.1875 134.363281 58.53125 131.109375 C 97.933594 107.160156 139.90625 83.167969 186.207031 76.292969 L 189.464844 75.789062 C 193.296875 75.277344 197.125 75.046875 200.980469 74.792969 " fill-opacity="1" fill-rule="nonzero"/></g></svg>